HIERARCHY
ROOT joint_Root
{
	OFFSET 0.0 0.0 0.0
	CHANNELS 6 Xposition Yposition Zposition Zrotation Xrotation Yrotation 
	JOINT Hips
	{
		OFFSET -17.1583 93.1646 452.98
		CHANNELS 6 Xposition Yposition Zposition Zrotation Xrotation Yrotation 
		JOINT Spine
		{
			OFFSET 15.7357 0.0 0.0
			CHANNELS 6 Xposition Yposition Zposition Zrotation Xrotation Yrotation 
			JOINT Chest
			{
				OFFSET 8.98455 -0.406207 0.0
				CHANNELS 6 Xposition Yposition Zposition Zrotation Xrotation Yrotation 
				JOINT Neck
				{
					OFFSET 16.3773 0.0 0.0
					CHANNELS 6 Xposition Yposition Zposition Zrotation Xrotation Yrotation 
					JOINT Head
					{
						OFFSET 6.45672 0.0 0.0
						CHANNELS 6 Xposition Yposition Zposition Zrotation Xrotation Yrotation 
						End Site
						{
							OFFSET 0.0 0.0 0.0
						}
					}
				}
				JOINT Shoulder_L
				{
					OFFSET 12.9942 -0.242716 4.98039
					CHANNELS 6 Xposition Yposition Zposition Zrotation Xrotation Yrotation 
					JOINT UpperArm_L
					{
						OFFSET 5.34809 0.0 0.0
						CHANNELS 6 Xposition Yposition Zposition Zrotation Xrotation Yrotation 
						JOINT LowerArm_L
						{
							OFFSET 24.3286 1.87007e-05 0.0
							CHANNELS 6 Xposition Yposition Zposition Zrotation Xrotation Yrotation 
							JOINT Hand_L
							{
								OFFSET 22.2916 0.0 0.0
								CHANNELS 6 Xposition Yposition Zposition Zrotation Xrotation Yrotation 
								End Site
								{
									OFFSET 0.0 0.0 0.0
								}
							}
						}
					}
				}
				JOINT Shoulder_R
				{
					OFFSET 12.9945 -0.242716 -4.98039
					CHANNELS 6 Xposition Yposition Zposition Zrotation Xrotation Yrotation 
					JOINT UpperArm_R
					{
						OFFSET -5.34813 0.0 0.0
						CHANNELS 6 Xposition Yposition Zposition Zrotation Xrotation Yrotation 
						JOINT LowerArm_R
						{
							OFFSET -24.3289 0.000322201 0.0
							CHANNELS 6 Xposition Yposition Zposition Zrotation Xrotation Yrotation 
							JOINT Hand_R
							{
								OFFSET -22.2915 -0.000108084 0.0
								CHANNELS 6 Xposition Yposition Zposition Zrotation Xrotation Yrotation 
								End Site
								{
									OFFSET 0.0 0.0 0.0
								}
							}
						}
					}
				}
			}
		}
		JOINT UpperLeg_L
		{
			OFFSET -2.19248 -6.46944 0.0
			CHANNELS 6 Xposition Yposition Zposition Zrotation Xrotation Yrotation 
			JOINT LowerLeg_L
			{
				OFFSET 39.0811 0.0 -1.23785e-05
				CHANNELS 6 Xposition Yposition Zposition Zrotation Xrotation Yrotation 
				JOINT Foot_L
				{
					OFFSET 40.9854 0.0 -1.26872e-05
					CHANNELS 6 Xposition Yposition Zposition Zrotation Xrotation Yrotation 
					JOINT Toes_L
					{
						OFFSET 11.7543 0.0 0.0
						CHANNELS 6 Xposition Yposition Zposition Zrotation Xrotation Yrotation 
						End Site
						{
							OFFSET 0.0 0.0 0.0
						}
					}
				}
			}
		}
		JOINT UpperLeg_R
		{
			OFFSET -2.19251 6.46944 0.0
			CHANNELS 6 Xposition Yposition Zposition Zrotation Xrotation Yrotation 
			JOINT LowerLeg_R
			{
				OFFSET -39.0811 -0.00228153 -0.0401928
				CHANNELS 6 Xposition Yposition Zposition Zrotation Xrotation Yrotation 
				JOINT Foot_R
				{
					OFFSET -40.9854 0.0 0.0
					CHANNELS 6 Xposition Yposition Zposition Zrotation Xrotation Yrotation 
					JOINT Toes_R
					{
						OFFSET -11.7543 0.0 0.0
						CHANNELS 6 Xposition Yposition Zposition Zrotation Xrotation Yrotation 
						End Site
						{
							OFFSET 0.0 0.0 0.0
						}
					}
				}
			}
		}
	}
}
MOTION
Frames:	5
Frame Time:	0.0333333
0.000000 0.000000 0.000000 0.000000 0.000000 -0.000000 -3.469910 92.058700 -2.008680 83.684800 1.588940 4.399980 15.735700 0.000005 -0.000001 56.723800 85.982400 -52.774200 8.984550 -0.406207 -0.000000 -0.873592 -4.705280 7.863640 16.377300 -0.000001 -0.000001 7.006690 -0.960730 6.192210 6.456720 -0.000001 -0.000000 1.834900 0.629604 9.644970 12.994200 -0.242716 4.980390 -91.986300 6.389460 -72.691000 5.348090 -0.000007 -0.000001 -76.433000 30.195600 1.965610 24.328600 0.000019 0.000005 12.989500 28.041300 -26.136500 22.291600 -0.000001 0.000005 -3.866480 5.030380 6.666270 12.994500 -0.242716 -4.980390 88.301500 4.497260 -69.285200 -5.348130 -0.000001 -0.000004 -72.904200 -1.884280 -20.263700 -24.328900 0.000322 -0.000009 16.678900 -20.441900 -139.374000 -22.291500 -0.000108 -0.000004 55.815700 5.637110 -13.889300 -2.192480 -6.469440 -0.000000 -171.355000 6.274010 -4.974890 39.081100 -0.000007 -0.000012 0.383903 -0.708179 28.463000 40.985400 -0.000006 -0.000013 0.377089 8.043580 -75.850200 11.754300 -0.000000 0.000003 0.000971 0.149265 -10.523400 -2.192510 6.469440 -0.000001 -169.696000 6.633440 -177.380000 -39.081100 -0.002282 -0.040193 0.115576 -0.409437 15.331000 -40.985400 0.000008 0.000006 5.091800 -0.123626 -70.179300 -11.754300 -0.000006 -0.000006 -0.008453 0.259354 -6.039500
0.000000 0.000000 0.000000 0.000000 0.000000 -0.000000 -3.459650 92.063400 -2.008430 83.704500 1.623260 4.352910 15.735700 0.000005 -0.000001 56.607500 85.991900 -52.667900 8.984550 -0.406207 -0.000000 -0.898905 -4.708520 7.842490 16.377300 -0.000001 -0.000001 6.939630 -0.970852 6.170130 6.456720 -0.000001 -0.000000 1.869500 0.658787 9.575720 12.994200 -0.242716 4.980390 -91.997900 6.406320 -72.638900 5.348090 -0.000007 -0.000001 -76.367500 30.286800 2.074730 24.328600 0.000019 0.000005 13.021600 28.031400 -26.201700 22.291600 -0.000001 0.000005 -3.824570 5.028240 6.712920 12.994500 -0.242716 -4.980390 88.309000 4.483160 -69.308800 -5.348130 -0.000001 -0.000004 -72.959900 -1.847900 -20.230700 -24.328900 0.000322 -0.000009 16.660000 -20.389100 -139.338000 -22.291500 -0.000108 -0.000004 55.746200 5.637560 -13.925100 -2.192480 -6.469440 -0.000000 -171.387000 6.316130 -5.009320 39.081100 -0.000007 -0.000012 0.387282 -0.715301 28.433200 40.985400 -0.000006 -0.000013 0.385019 8.039640 -75.853600 11.754300 -0.000000 0.000003 0.000962 0.149462 -10.515400 -2.192510 6.469440 -0.000001 -169.713000 6.662870 -177.412000 -39.081100 -0.002282 -0.040193 0.115018 -0.408431 15.294100 -40.985400 0.000008 0.000006 5.110770 -0.162161 -70.169400 -11.754300 -0.000006 -0.000006 -0.008454 0.259368 -6.038960
0.000000 0.000000 0.000000 0.000000 0.000000 -0.000000 -3.459820 92.063500 -1.997100 83.695300 1.658430 4.372890 15.735700 0.000005 -0.000001 56.819000 85.997700 -52.885600 8.984550 -0.406207 -0.000000 -0.893761 -4.676780 7.830560 16.377300 -0.000001 -0.000001 6.949880 -0.956457 6.152310 6.456720 -0.000001 -0.000000 1.843820 0.612531 9.550970 12.994200 -0.242716 4.980390 -91.985700 6.386260 -72.687800 5.348090 -0.000007 -0.000001 -76.345600 30.222500 2.138870 24.328600 0.000019 0.000005 12.968400 27.942000 -26.172300 22.291600 -0.000001 0.000005 -3.989130 5.029060 6.695200 12.994500 -0.242716 -4.980390 88.305200 4.489930 -69.294900 -5.348130 -0.000001 -0.000004 -72.945900 -1.792080 -20.202900 -24.328900 0.000322 -0.000009 16.611300 -20.349500 -139.373000 -22.291500 -0.000108 -0.000004 55.860500 5.636060 -13.805200 -2.192480 -6.469440 -0.000000 -171.374000 6.315450 -4.993550 39.081100 -0.000007 -0.000012 0.384092 -0.709379 28.434200 40.985400 -0.000006 -0.000013 0.389380 8.060510 -75.856300 11.754300 -0.000000 0.000003 0.000992 0.148801 -10.542200 -2.192510 6.469440 -0.000001 -169.725000 6.718300 -177.388000 -39.081100 -0.002282 -0.040193 0.114444 -0.406260 15.296700 -40.985400 0.000008 0.000006 5.087260 -0.090009 -70.198200 -11.754300 -0.000006 -0.000006 -0.008563 0.260232 -6.003650
0.000000 0.000000 0.000000 0.000000 0.000000 -0.000000 -3.452580 92.059900 -1.993230 83.700900 1.675560 4.341100 15.735700 0.000005 -0.000001 56.897000 86.007200 -52.971000 8.984550 -0.406207 -0.000000 -0.904744 -4.657110 7.815490 16.377300 -0.000001 -0.000001 6.947660 -0.935014 6.113090 6.456720 -0.000001 -0.000000 1.838980 0.586781 9.575350 12.994200 -0.242716 4.980390 -91.989700 6.399160 -72.687400 5.348090 -0.000007 -0.000001 -76.278600 30.184600 2.153090 24.328600 0.000019 0.000005 13.004900 28.043700 -26.162500 22.291600 -0.000001 0.000005 -3.922780 5.030630 6.661040 12.994500 -0.242716 -4.980390 88.303700 4.495130 -69.300000 -5.348130 -0.000001 -0.000004 -72.900500 -1.754320 -20.203300 -24.328900 0.000322 -0.000009 16.589000 -20.334200 -139.393000 -22.291500 -0.000108 -0.000004 55.786800 5.634740 -13.700100 -2.192480 -6.469440 -0.000000 -171.381000 6.330740 -5.035420 39.081100 -0.000007 -0.000012 0.386540 -0.713373 28.451900 40.985400 -0.000006 -0.000013 0.394815 8.066760 -75.861400 11.754300 -0.000000 0.000003 0.000971 0.149257 -10.523700 -2.192510 6.469440 -0.000001 -169.741000 6.804230 -177.436000 -39.081100 -0.002282 -0.040193 0.115251 -0.408284 15.329900 -40.985400 0.000008 0.000006 5.119390 -0.029345 -70.224000 -11.754300 -0.000006 -0.000006 -0.008656 0.260969 -5.973530
0.000000 0.000000 0.000000 0.000000 0.000000 -0.000000 -3.451360 92.063200 -1.977210 83.700400 1.680420 4.372700 15.735700 0.000005 -0.000001 57.181400 86.005900 -53.261200 8.984550 -0.406207 -0.000000 -0.882411 -4.624050 7.804940 16.377300 -0.000001 -0.000001 6.941450 -0.949574 6.138650 6.456720 -0.000001 -0.000000 1.849210 0.574776 9.549680 12.994200 -0.242716 4.980390 -91.989700 6.402180 -72.695200 5.348090 -0.000007 -0.000001 -76.240200 30.136800 2.114770 24.328600 0.000019 0.000005 12.938400 27.998400 -26.075800 22.291600 -0.000001 0.000005 -3.831580 5.029810 6.678730 12.994500 -0.242716 -4.980390 88.295300 4.523960 -69.328000 -5.348130 -0.000001 -0.000004 -72.809100 -1.837390 -20.192100 -24.328900 0.000322 -0.000009 16.539600 -20.274700 -139.403000 -22.291500 -0.000108 -0.000004 55.784600 5.635030 -13.723200 -2.192480 -6.469440 -0.000000 -171.385000 6.335880 -4.979560 39.081100 -0.000007 -0.000012 0.383340 -0.708234 28.425900 40.985400 -0.000006 -0.000013 0.397605 8.063620 -75.869900 11.754300 -0.000000 0.000003 0.000944 0.149844 -10.499900 -2.192510 6.469440 -0.000001 -169.742000 6.764770 -177.365000 -39.081100 -0.002282 -0.040193 0.114577 -0.407314 15.276400 -40.985400 0.000008 0.000006 5.097810 -0.053105 -70.195100 -11.754300 -0.000006 -0.000006 -0.008596 0.260497 -5.992840
